<svg xmlns="http://www.w3.org/2000/svg" viewBox="0 0 1280 800" fill="none" role="img" aria-label="Elektroauto lädt zuhause an der Wallbox">
  <defs>
    <linearGradient id="hSky" x1="0" y1="0" x2="0" y2="1">
      <stop offset="0" stop-color="#13205c"/>
      <stop offset="0.55" stop-color="#1c34c4"/>
      <stop offset="1" stop-color="#2a52e0"/>
    </linearGradient>
    <linearGradient id="hCar" x1="0" y1="0" x2="0" y2="1">
      <stop offset="0" stop-color="#ffffff"/>
      <stop offset="1" stop-color="#c4cfe6"/>
    </linearGradient>
    <linearGradient id="hGlass" x1="0" y1="0" x2="0" y2="1">
      <stop offset="0" stop-color="#3a5bd0"/>
      <stop offset="1" stop-color="#16245f"/>
    </linearGradient>
    <radialGradient id="hGlow" cx="0.78" cy="0.42" r="0.5">
      <stop offset="0" stop-color="#7be857" stop-opacity="0.45"/>
      <stop offset="1" stop-color="#7be857" stop-opacity="0"/>
    </radialGradient>
  </defs>

  <rect width="1280" height="800" fill="url(#hSky)"/>
  <rect width="1280" height="800" fill="url(#hGlow)"/>

  <!-- house, sitting on the ground line (y=600) -->
  <path d="M806 250 L985 152 L1164 250 Z" fill="#1a2660"/>
  <path d="M830 250 L1140 250 L1140 600 L830 600 Z" fill="#0f1840" opacity="0.94"/>
  <rect x="900" y="322" width="84" height="120" rx="6" fill="#ffd27a" opacity="0.85"/>
  <rect x="1034" y="332" width="60" height="92" rx="6" fill="#ffd27a" opacity="0.55"/>

  <!-- ground -->
  <rect y="600" width="1280" height="200" fill="#0c1330"/>
  <g stroke="#1a2660" stroke-width="2" opacity="0.6">
    <path d="M120 668 H1160"/><path d="M60 724 H1220"/>
  </g>

  <!-- car (side-view EV sedan) -->
  <g>
    <ellipse cx="450" cy="654" rx="330" ry="30" fill="#000" opacity="0.35"/>

    <!-- body -->
    <path d="M150 600
             L150 566
             C150 552 160 544 176 543
             L322 536
             L398 466
             C404 460 412 456 422 456
             L566 456
             C578 456 588 461 595 471
             L662 540
             L726 548
             C740 550 748 559 748 572
             L748 600 Z" fill="url(#hCar)"/>

    <!-- belt-line accent -->
    <path d="M180 560 L726 560" stroke="#2a52e0" stroke-width="3" opacity="0.25"/>

    <!-- greenhouse / windows (split by B-pillar) -->
    <path d="M338 532 L404 470 C408 466 414 463 421 463 L520 463 L520 532 Z" fill="url(#hGlass)" opacity="0.92"/>
    <path d="M540 463 L562 463 C572 463 580 467 586 475 L640 532 L540 532 Z" fill="url(#hGlass)" opacity="0.92"/>

    <!-- charge-port flap on the rear flank -->
    <rect x="700" y="528" width="30" height="26" rx="5" fill="#0c1330"/>

    <!-- headlight -->
    <path d="M150 568 L172 566 L172 580 L150 582 Z" fill="#bcd7ff" opacity="0.85"/>

    <!-- wheels with arches -->
    <circle cx="320" cy="604" r="58" fill="#0c1330"/>
    <circle cx="320" cy="604" r="56" fill="none" stroke="#3a4775" stroke-width="3"/>
    <circle cx="320" cy="604" r="26" fill="#5b6788"/>
    <circle cx="600" cy="604" r="58" fill="#0c1330"/>
    <circle cx="600" cy="604" r="56" fill="none" stroke="#3a4775" stroke-width="3"/>
    <circle cx="600" cy="604" r="26" fill="#5b6788"/>
  </g>

  <!-- wallbox mounted on the house wall + cable running to the car (drawn on
       top so it clearly plugs into the charge port) -->
  <g>
    <rect x="790" y="386" width="42" height="94" rx="9" fill="#0c1330"/>
    <rect x="790" y="386" width="42" height="94" rx="9" fill="none" stroke="#2a3a78" stroke-width="2"/>
    <circle cx="811" cy="410" r="6" fill="#7be857"/>
    <rect x="800" y="432" width="24" height="22" rx="4" fill="#22306a"/>
    <!-- cable from the wallbox into the car's charge port -->
    <path d="M812 454 C 806 502, 772 528, 728 540" fill="none" stroke="#0c1330" stroke-width="12" stroke-linecap="round"/>
    <path d="M812 454 C 806 502, 772 528, 728 540" fill="none" stroke="#1a2660" stroke-width="4" stroke-linecap="round"/>
    <!-- connector + status light at the car -->
    <rect x="716" y="529" width="22" height="22" rx="5" fill="#0c1330"/>
    <circle cx="727" cy="540" r="4.5" fill="#7be857"/>
  </g>
</svg>
