<svg xmlns="http://www.w3.org/2000/svg" viewBox="0 0 1280 800" fill="none" role="img" aria-label="Transporter lädt unterwegs an der Ladesäule">
  <defs>
    <linearGradient id="sBg" x1="0" y1="0" x2="0" y2="1">
      <stop offset="0" stop-color="#dfe7f7"/>
      <stop offset="1" stop-color="#aebfe2"/>
    </linearGradient>
    <linearGradient id="sVan" x1="0" y1="0" x2="0" y2="1">
      <stop offset="0" stop-color="#ffffff"/>
      <stop offset="1" stop-color="#cdd7ea"/>
    </linearGradient>
    <linearGradient id="sGlass" x1="0" y1="0" x2="0" y2="1">
      <stop offset="0" stop-color="#9db8ec"/>
      <stop offset="1" stop-color="#6f8fd6"/>
    </linearGradient>
    <linearGradient id="sPillar" x1="0" y1="0" x2="0" y2="1">
      <stop offset="0" stop-color="#16204a"/>
      <stop offset="1" stop-color="#0c1330"/>
    </linearGradient>
  </defs>

  <rect width="1280" height="800" fill="url(#sBg)"/>
  <circle cx="250" cy="180" r="120" fill="#ffffff" opacity="0.45"/>

  <!-- trees / horizon -->
  <g fill="#7da06a" opacity="0.55">
    <circle cx="120" cy="500" r="70"/><circle cx="200" cy="510" r="90"/><circle cx="300" cy="505" r="70"/>
  </g>

  <!-- ground -->
  <rect y="600" width="1280" height="200" fill="#9aa8c6"/>
  <rect y="600" width="1280" height="14" fill="#7e8eb0"/>

  <!-- charging pillar -->
  <g>
    <rect x="980" y="300" width="120" height="300" rx="20" fill="url(#sPillar)"/>
    <rect x="980" y="300" width="120" height="12" rx="6" fill="#7be857"/>
    <rect x="1002" y="330" width="76" height="110" rx="10" fill="#1c34c4"/>
    <path d="M1048 348 L1028 392 h18 l-6 30 30 -42 h-20 z" fill="#7be857"/>
    <!-- socket the cable leaves from -->
    <circle cx="982" cy="470" r="9" fill="#0c1330"/>
    <!-- cable arcing into the van's charge port -->
    <path d="M982 470 C 920 506, 872 512, 824 506" fill="none" stroke="#0c1330" stroke-width="12" stroke-linecap="round"/>
    <path d="M982 470 C 920 506, 872 512, 824 506" fill="none" stroke="#22306a" stroke-width="4" stroke-linecap="round"/>
    <!-- connector plugged into the van -->
    <rect x="806" y="494" width="26" height="24" rx="5" fill="#0c1330"/>
  </g>

  <!-- van (side-view transporter) -->
  <g>
    <ellipse cx="490" cy="652" rx="370" ry="30" fill="#000" opacity="0.28"/>

    <!-- body -->
    <path d="M174 588
             L174 468
             C174 458 181 451 191 450
             L250 448
             L304 404
             C308 400 314 398 320 398
             L792 398
             C801 398 808 405 808 414
             L808 588 Z" fill="url(#sVan)"/>

    <!-- windshield + cab door glass -->
    <path d="M258 452 L308 404 C311 401 315 399 320 399 L344 399 L344 452 Z" fill="url(#sGlass)" opacity="0.95"/>
    <rect x="360" y="416" width="96" height="60" rx="6" fill="url(#sGlass)" opacity="0.9"/>

    <!-- body crease + door split lines -->
    <path d="M180 512 L800 512" stroke="#9fb1d4" stroke-width="3" opacity="0.7"/>
    <path d="M520 408 L520 588" stroke="#b3c2e0" stroke-width="3" opacity="0.7"/>
    <path d="M660 408 L660 588" stroke="#b3c2e0" stroke-width="3" opacity="0.7"/>

    <!-- charge-port flap where the connector meets the van -->
    <rect x="788" y="488" width="22" height="34" rx="5" fill="#16245f"/>
    <circle cx="799" cy="505" r="6" fill="#7be857"/>

    <!-- headlight -->
    <path d="M174 470 L196 470 L196 486 L174 486 Z" fill="#cfe0ff"/>

    <!-- brand on the side (upper cargo panel, clear of the wheels) -->
    <text x="380" y="486" font-family="Outfit, Arial, sans-serif" font-size="38" font-weight="800" fill="#1c34c4">e&#8209;load <tspan fill="#3aa845">me</tspan></text>

    <!-- wheels with arches -->
    <circle cx="306" cy="592" r="60" fill="#0c1330"/>
    <circle cx="306" cy="592" r="58" fill="none" stroke="#3a4775" stroke-width="3"/>
    <circle cx="306" cy="592" r="28" fill="#5b6788"/>
    <circle cx="660" cy="592" r="60" fill="#0c1330"/>
    <circle cx="660" cy="592" r="58" fill="none" stroke="#3a4775" stroke-width="3"/>
    <circle cx="660" cy="592" r="28" fill="#5b6788"/>
  </g>

  <!-- label -->
  <g transform="translate(64 64)">
    <rect width="210" height="44" rx="22" fill="#1c34c4" opacity="0.12"/>
    <circle cx="26" cy="22" r="7" fill="#1c34c4"/>
    <text x="46" y="29" font-family="Outfit, Arial, sans-serif" font-size="20" font-weight="700" fill="#16204a">Unterwegs laden</text>
  </g>
</svg>
