<svg xmlns="http://www.w3.org/2000/svg" viewBox="0 0 1280 800" fill="none" role="img" aria-label="e-load me Ladekarte für Flotten">
  <defs>
    <linearGradient id="cBg" x1="0" y1="0" x2="1" y2="1">
      <stop offset="0" stop-color="#eef2fb"/>
      <stop offset="1" stop-color="#d6def2"/>
    </linearGradient>
    <linearGradient id="cCard" x1="0" y1="0" x2="1" y2="1">
      <stop offset="0" stop-color="#1c34c4"/>
      <stop offset="1" stop-color="#0f1f7a"/>
    </linearGradient>
    <linearGradient id="cChip" x1="0" y1="0" x2="1" y2="1">
      <stop offset="0" stop-color="#e9c46a"/>
      <stop offset="1" stop-color="#c79a3a"/>
    </linearGradient>
  </defs>

  <rect width="1280" height="800" fill="url(#cBg)"/>
  <circle cx="1080" cy="150" r="220" fill="#ffffff" opacity="0.5"/>
  <circle cx="200" cy="680" r="180" fill="#ffffff" opacity="0.4"/>

  <!-- card -->
  <g transform="rotate(-7 640 400)">
    <rect x="320" y="250" width="640" height="400" rx="40" fill="#0c1330" opacity="0.25"/>
    <rect x="312" y="236" width="640" height="400" rx="40" fill="url(#cCard)"/>
    <rect x="312" y="236" width="640" height="400" rx="40" fill="none" stroke="#7be857" stroke-width="3" opacity="0.85"/>

    <!-- chip -->
    <rect x="372" y="372" width="78" height="60" rx="10" fill="url(#cChip)"/>
    <g stroke="#8a6a22" stroke-width="2" opacity="0.6">
      <path d="M372 392 H450"/><path d="M372 412 H450"/><path d="M411 372 V432"/>
    </g>

    <!-- wordmark -->
    <text x="476" y="420" font-family="Outfit, Arial, sans-serif" font-size="64" font-weight="800" fill="#ffffff">e&#8209;load <tspan fill="#bcd7ff">me</tspan></text>
    <text x="478" y="462" font-family="Manrope, Arial, sans-serif" font-size="22" letter-spacing="3" fill="#9fb6ff">FLEET CHARGING SOLUTIONS</text>

    <!-- plug + signal mark -->
    <g transform="translate(812 300)">
      <path d="M0 22 a30 30 0 0 1 30 -30 h6 a30 30 0 0 1 30 30 v14 a30 30 0 0 1 -30 30 h-6 a30 30 0 0 1 -30 -30 z" fill="#7be857"/>
      <path d="M34 -8 L18 26 h14 l-5 24 24 -34 h-16 z" fill="#0f1f7a"/>
      <path d="M76 -2 a36 36 0 0 1 0 56" stroke="#7be857" stroke-width="8" stroke-linecap="round" fill="none"/>
      <path d="M92 -18 a58 58 0 0 1 0 88" stroke="#7be857" stroke-width="8" stroke-linecap="round" fill="none" opacity="0.5"/>
    </g>
  </g>
</svg>
